# xmcd
#
# Track frame offsets: 
#        150
#        14822
#        30285
#        47822
#        63727
#        78932
#        94915
#        113647
#        132877
#        149810
#        169245
#        184675
#
# Disc length: 2689 seconds
#
# Revision: 2
# Processed by: cddbd v1.5.2PL0 Copyright (c) Steve Scherf et al.
# Submitted via: ExactAudioCopyFreeDBPlugin 1.0
#
DISCID=a80a7f0c
DTITLE=Styles P - Time Is Money
DYEAR=2006
DGENRE=Rap
TTITLE0=G Joint
TTITLE1=Testify Feat. Talib Kweli
TTITLE2=How We Live
TTITLE3=Real Shit Feat. Gerald Levert
TTITLE4=Who Want a Problem (Remix) Feat. Swizz Beatz and The Lox
TTITLE5=Favorite Drug Feat. Rashad
TTITLE6=Can You Believe That Feat. Akon
TTITLE7=Kick It Like That Feat. Jagged Edge
TTITLE8=I'm Black Feat. Marsha From Floetry
TTITLE9=Fire and Pain Feat. Sizzla
TTITLE10=Burn One Down Feat. Flipsyde
TTITLE11=Leave A Message
EXTD=
EXTT0=
EXTT1=
EXTT2=
EXTT3=
EXTT4=
EXTT5=
EXTT6=
EXTT7=
EXTT8=
EXTT9=
EXTT10=
EXTT11=
PLAYORDER=
